<svg width="220" height="50" viewBox="0 0 220 50" fill="none" xmlns="http://www.w3.org/2000/svg">
<path d="M39.4393 49.6552C35.7431 49.6552 32.4119 48.8588 29.4458 47.266C26.5254 45.6302 24.221 43.4348 22.5326 40.6798C20.8442 37.8817 20 34.7393 20 31.2524C20 27.7656 20.8442 24.6446 22.5326 21.8896C24.221 19.1346 26.5254 16.9607 29.4458 15.3679C32.4119 13.7752 35.7431 12.9788 39.4393 12.9788C42.0859 12.9788 44.5501 13.4308 46.8317 14.3348C49.1133 15.1957 51.0755 16.4011 52.7182 17.9508C54.4066 19.4574 55.6159 21.2654 56.346 23.3747L48.4744 26.6033C47.79 24.8383 46.6263 23.4178 44.9836 22.3416C43.3865 21.2654 41.5384 20.7273 39.4393 20.7273C37.4771 20.7273 35.7203 21.1793 34.1688 22.0833C32.6629 22.9873 31.4765 24.2357 30.6095 25.8284C29.7425 27.4212 29.309 29.2507 29.309 31.317C29.309 33.3833 29.7425 35.2128 30.6095 36.8055C31.4765 38.3983 32.6629 39.6466 34.1688 40.5506C35.7203 41.4546 37.4771 41.9066 39.4393 41.9066C41.584 41.9066 43.4549 41.3685 45.052 40.2924C46.6492 39.2162 47.79 37.7741 48.4744 35.9661L56.346 39.3238C55.6159 41.304 54.4294 43.0904 52.7867 44.6832C51.1439 46.2329 49.1817 47.4598 46.9001 48.3638C44.6185 49.2247 42.1316 49.6552 39.4393 49.6552Z" fill="#04A51E"/>
<path d="M63.1496 48.8803V13.7536H72.1163V48.8803H63.1496ZM63.1496 9.81481V0.774851H72.1163V9.81481H63.1496Z" fill="#04A51E"/>
<path d="M80.3954 48.8803V13.7536H88.8145V21.5667L88.13 20.4045C88.997 17.7786 90.3432 15.9491 92.1684 14.9159C94.0394 13.8828 96.2753 13.3662 98.8764 13.3662H101.067V20.8565H97.8496C95.2942 20.8565 93.2408 21.6098 91.6893 23.1165C90.1378 24.5801 89.3621 26.6463 89.3621 29.3153V48.8803H80.3954Z" fill="#04A51E"/>
<path d="M123.93 49.6552C120.234 49.6552 116.903 48.8588 113.937 47.266C111.016 45.6302 108.712 43.4348 107.023 40.6798C105.335 37.8817 104.491 34.7393 104.491 31.2524C104.491 27.7656 105.335 24.6446 107.023 21.8896C108.712 19.1346 111.016 16.9607 113.937 15.3679C116.903 13.7752 120.234 12.9788 123.93 12.9788C126.577 12.9788 129.041 13.4308 131.322 14.3348C133.604 15.1957 135.566 16.4011 137.209 17.9508C138.897 19.4574 140.107 21.2654 140.837 23.3747L132.965 26.6033C132.281 24.8383 131.117 23.4178 129.474 22.3416C127.877 21.2654 126.029 20.7273 123.93 20.7273C121.968 20.7273 120.211 21.1793 118.659 22.0833C117.154 22.9873 115.967 24.2357 115.1 25.8284C114.233 27.4212 113.8 29.2507 113.8 31.317C113.8 33.3833 114.233 35.2128 115.1 36.8055C115.967 38.3983 117.154 39.6466 118.659 40.5506C120.211 41.4546 121.968 41.9066 123.93 41.9066C126.075 41.9066 127.946 41.3685 129.543 40.2924C131.14 39.2162 132.281 37.7741 132.965 35.9661L140.837 39.3238C140.107 41.304 138.92 43.0904 137.277 44.6832C135.635 46.2329 133.672 47.4598 131.391 48.3638C129.109 49.2247 126.622 49.6552 123.93 49.6552Z" fill="#04A51E"/>
<path d="M147.64 48.8803V0H156.607V48.8803H147.64Z" fill="#04A51E"/>
<path d="M182.546 49.6552C178.713 49.6552 175.359 48.8373 172.484 47.2015C169.609 45.5657 167.373 43.3487 165.776 40.5506C164.179 37.7526 163.38 34.6532 163.38 31.2524C163.38 27.7225 164.179 24.6016 165.776 21.8896C167.419 19.1346 169.632 16.9607 172.415 15.3679C175.245 13.7752 178.393 12.9788 181.861 12.9788C184.782 12.9788 187.337 13.4308 189.527 14.3348C191.763 15.2388 193.657 16.4872 195.209 18.0799C196.76 19.6727 197.947 21.5022 198.768 23.5684C199.589 25.5917 200 27.7871 200 30.1547C200 30.7574 199.954 31.3816 199.863 32.0273C199.817 32.673 199.703 33.2326 199.521 33.7061H170.773V27.249H194.456L190.212 30.2838C190.623 28.3037 190.509 26.5387 189.87 24.989C189.276 23.4393 188.273 22.2125 186.858 21.3085C185.489 20.4045 183.823 19.9525 181.861 19.9525C179.99 19.9525 178.325 20.4045 176.865 21.3085C175.404 22.1694 174.286 23.4608 173.511 25.1827C172.78 26.8616 172.507 28.9063 172.689 31.317C172.507 33.4693 172.803 35.385 173.579 37.0638C174.4 38.6996 175.587 39.9695 177.138 40.8735C178.735 41.7775 180.561 42.2295 182.614 42.2295C184.668 42.2295 186.402 41.8205 187.816 41.0026C189.276 40.1847 190.417 39.087 191.239 37.7095L198.494 41.0672C197.764 42.7461 196.623 44.2312 195.072 45.5226C193.52 46.814 191.672 47.8257 189.527 48.5575C187.428 49.2893 185.101 49.6552 182.546 49.6552Z" fill="#04A51E"/>
</svg>
